<svg width="102" height="53" viewBox="0 0 102 53" fill="none" xmlns="http://www.w3.org/2000/svg">
<path d="M13.7 48V33.6L1.05 14.65H11L20.5 30.6H16.75L25.4 14.65H33.45L20.65 35.6L21.8 31.3V48H13.7ZM38.1691 48V14.65H46.2691V28.15H58.5191V14.65H66.5691V48H58.5191V34.75H46.2691V48H38.1691ZM88.4172 48.65C83.0839 48.65 79.0005 47.25 76.1672 44.45C73.3672 41.6167 71.9672 37.25 71.9672 31.35C71.9672 25.6167 73.3172 21.2833 76.0172 18.35C78.7172 15.3833 82.8505 13.9 88.4172 13.9C90.1839 13.9 91.9672 14.1167 93.7672 14.55C95.5672 14.9833 97.3172 15.5833 99.0172 16.35V23.4C97.2839 22.2667 95.6172 21.45 94.0172 20.95C92.4172 20.45 90.9172 20.2 89.5172 20.2C87.5505 20.2 85.8839 20.55 84.5172 21.25C83.1839 21.95 82.1505 23.1167 81.4172 24.75C80.7172 26.3833 80.3672 28.5833 80.3672 31.35C80.3672 34.1167 80.7172 36.3 81.4172 37.9C82.1505 39.5 83.2172 40.65 84.6172 41.35C86.0505 42.0167 87.8005 42.35 89.8672 42.35C91.1005 42.35 92.5005 42.1167 94.0672 41.65C95.6339 41.1833 97.2839 40.3833 99.0172 39.25V46.3C98.0839 46.7667 97.0172 47.1833 95.8172 47.55C94.6505 47.8833 93.4172 48.15 92.1172 48.35C90.8505 48.55 89.6172 48.65 88.4172 48.65Z" fill="white"/>
<path d="M0 33.05H101.617V35.55H0V33.05Z" fill="white"/>
</svg>
