<svg width="128" height="46" viewBox="0 0 128 46" fill="none" xmlns="http://www.w3.org/2000/svg">
<path d="M16.81 45V26.28L0.365 1.645H13.3L25.65 22.38H20.775L32.02 1.645H42.485L25.845 28.88L27.34 23.29V45H16.81ZM48.6199 45V1.645H59.1499V19.195H75.0749V1.645H85.5399V45H75.0749V27.775H59.1499V45H48.6199ZM113.942 45.845C107.009 45.845 101.701 44.025 98.0173 40.385C94.3773 36.7017 92.5573 31.025 92.5573 23.355C92.5573 15.9017 94.3123 10.2683 97.8223 6.455C101.332 2.59833 106.706 0.669997 113.942 0.669997C116.239 0.669997 118.557 0.951664 120.897 1.515C123.237 2.07833 125.512 2.85833 127.722 3.855V13.02C125.469 11.5467 123.302 10.485 121.222 9.835C119.142 9.185 117.192 8.86 115.372 8.86C112.816 8.86 110.649 9.315 108.872 10.225C107.139 11.135 105.796 12.6517 104.842 14.775C103.932 16.8983 103.477 19.7583 103.477 23.355C103.477 26.9517 103.932 29.79 104.842 31.87C105.796 33.95 107.182 35.445 109.002 36.355C110.866 37.2217 113.141 37.655 115.827 37.655C117.431 37.655 119.251 37.3517 121.287 36.745C123.324 36.1383 125.469 35.0983 127.722 33.625V42.79C126.509 43.3967 125.122 43.9383 123.562 44.415C122.046 44.8483 120.442 45.195 118.752 45.455C117.106 45.715 115.502 45.845 113.942 45.845Z" fill="white"/>
<path d="M-1 25.565H131.102V28.815H-1V25.565Z" fill="white"/>
</svg>
