<svg width="26" height="17" viewBox="0 0 26 17" fill="none" xmlns="http://www.w3.org/2000/svg">
<path d="M26 16.5592C25.0542 16.8302 24.4692 16.5711 23.9445 15.683L20.2118 9.86295L19.6722 9.05707L15.3132 15.7023C14.8152 16.5019 14.2928 16.8495 13.3632 16.5667L18.9451 8.12218L13.7483 0.494325C14.642 0.298513 15.2596 0.398067 15.8079 1.30021L19.6794 7.19279L23.5795 1.33229C24.0791 0.532784 24.6163 0.229067 25.5133 0.523553L23.4983 3.53435L20.7683 7.54046C20.4433 7.99823 20.4879 8.31162 20.7871 8.75357L26 16.5592ZM0.00663002 7.98109L0.463126 5.45005C1.70625 0.441141 6.80064 -1.64026 10.314 1.4547C12.3671 3.27502 12.8774 5.85002 12.7758 8.73445H1.20257C1.02882 13.9264 4.34461 17.0598 8.57183 15.4613C10.0546 14.9 10.928 13.5913 11.3652 11.9542C11.5871 11.1339 11.9541 11.0055 12.6384 11.24C12.2891 13.2876 11.5009 14.998 9.83524 16.0685C7.34664 17.6708 3.79412 17.1526 1.92563 14.9257C0.812372 13.6335 0.352561 11.9964 0.14625 10.2456C0.113685 9.95613 0.0487501 9.68054 0 9.4032C0.00429001 8.92938 0.00663002 8.45579 0.00663002 7.98197V7.98109ZM1.22363 7.6332H11.6821C11.6138 3.87894 9.53962 1.2123 6.7047 1.18966C3.59288 1.16219 1.35837 3.76532 1.22343 7.6332H1.22363Z" fill="#9CB2FF"/>
</svg>
