<svg width="23" height="28" viewBox="0 0 23 30" fill="none" xmlns="http://www.w3.org/2000/svg">
<path d="M6.46875 0C2.91318 0 0 2.64334 0 5.86957C0 7.75128 1.05433 9.35848 2.58582 10.4348C1.05433 11.5111 0 13.1183 0 15C0 16.8817 1.05433 18.4889 2.58582 19.5652C1.05433 20.6415 0 22.2487 0 24.1304C0 27.3567 2.91318 30 6.46875 30C10.0243 30 12.9375 27.3567 12.9375 24.1304V19.5652V11.7391H16.5312C20.0868 11.7391 23 9.09579 23 5.86957C23 2.64334 20.0868 0 16.5312 0H11.5H6.46875ZM6.46875 2.6087H10.0625V9.13043H6.46875C4.46694 9.13043 2.875 7.68595 2.875 5.86957C2.875 4.05318 4.46694 2.6087 6.46875 2.6087ZM12.9375 2.6087H16.5312C18.5331 2.6087 20.125 4.05318 20.125 5.86957C20.125 7.68595 18.5331 9.13043 16.5312 9.13043H12.9375V2.6087ZM6.46875 11.7391H10.0625V18.2609H6.46875C4.46694 18.2609 2.875 16.8164 2.875 15C2.875 13.1836 4.46694 11.7391 6.46875 11.7391ZM17.25 11.7391C16.1063 11.7391 15.0094 12.1514 14.2006 12.8852C13.3919 13.6191 12.9375 14.6144 12.9375 15.6522C12.9375 16.69 13.3919 17.6853 14.2006 18.4191C15.0094 19.153 16.1063 19.5652 17.25 19.5652C18.3937 19.5652 19.4906 19.153 20.2994 18.4191C21.1081 17.6853 21.5625 16.69 21.5625 15.6522C21.5625 14.6144 21.1081 13.6191 20.2994 12.8852C19.4906 12.1514 18.3937 11.7391 17.25 11.7391ZM6.46875 20.8696H10.0625V24.1304C10.0625 25.9468 8.47056 27.3913 6.46875 27.3913C4.46694 27.3913 2.875 25.9468 2.875 24.1304C2.875 22.3141 4.46694 20.8696 6.46875 20.8696Z" fill="#9CB2FF"/>
</svg>
