<svg width="23" height="23" viewBox="0 0 23 23" fill="none" xmlns="http://www.w3.org/2000/svg">
<path d="M11.5 1C11.7832 1 12.0488 1.10938 12.248 1.31055L21.6895 10.752C22.1035 11.1641 22.1035 11.8359 21.6895 12.248L12.248 21.6895C12.0488 21.8906 11.7832 22 11.5 22C11.2168 22 10.9512 21.8906 10.752 21.6895L1.31055 12.248C0.896485 11.8359 0.896485 11.1641 1.31055 10.752L7.4707 4.5918L8.60742 5.72852C8.33398 6.74414 8.60937 7.85156 9.37891 8.62109C9.5625 8.80469 9.77148 8.96289 10 9.09375V13.9082C9.08984 14.4336 8.5 15.4121 8.5 16.5C8.5 18.1543 9.8457 19.5 11.5 19.5C13.1543 19.5 14.5 18.1543 14.5 16.5C14.5 15.4121 13.9102 14.4336 13 13.9082V10.1211L13.6074 10.7285C13.334 11.7441 13.6094 12.8516 14.3789 13.6211C14.9453 14.1875 15.6992 14.5 16.5 14.5C17.3008 14.5 18.0547 14.1875 18.6211 13.6211C19.791 12.4512 19.791 10.5488 18.6211 9.37891C18.0566 8.81445 17.3086 8.50391 16.5098 8.50391C16.2461 8.50391 15.9824 8.53906 15.7285 8.60742L14.3926 7.27148C14.666 6.25586 14.3906 5.14844 13.6211 4.37891C13.0566 3.81445 12.3086 3.50391 11.5098 3.50391C11.2461 3.50391 10.9824 3.53906 10.7285 3.60742L9.5918 2.4707L10.752 1.31055C10.9512 1.10938 11.2168 1 11.5 1ZM11.5 0C10.9727 0 10.4453 0.201172 10.0449 0.603516L8.17773 2.4707L10.4883 4.78125C10.8027 4.59766 11.1562 4.50391 11.5098 4.50391C12.0176 4.50391 12.5254 4.69727 12.9141 5.08594C13.5723 5.74414 13.668 6.74414 13.2168 7.50977L15.4883 9.78125C15.8027 9.59766 16.1562 9.50391 16.5098 9.50391C17.0176 9.50391 17.5254 9.69727 17.9141 10.0859C18.6953 10.8672 18.6953 12.1328 17.9141 12.9141C17.5234 13.3047 17.0117 13.5 16.5 13.5C15.9883 13.5 15.4766 13.3047 15.0859 12.9141C14.4277 12.2559 14.332 11.2559 14.7832 10.4883L12.5117 8.2168C12.3496 8.3125 12.1777 8.38281 12 8.42773V14.5703C12.8613 14.793 13.5 15.5684 13.5 16.5C13.5 17.6055 12.6055 18.5 11.5 18.5C10.3965 18.5 9.5 17.6055 9.5 16.5C9.5 15.5684 10.1387 14.793 11 14.5703V8.42773C10.666 8.3418 10.3477 8.17578 10.0859 7.91406C9.42773 7.25586 9.33203 6.25586 9.7832 5.49023L7.4707 3.17773L0.603516 10.0449C-0.201172 10.8477 -0.201172 12.1523 0.603516 12.9551L10.0449 22.3965C10.4453 22.7988 10.9727 23 11.5 23C12.0273 23 12.5547 22.7988 12.9551 22.3965L22.3965 12.9551C23.2012 12.1523 23.2012 10.8477 22.3965 10.0449L12.9551 0.603516C12.5547 0.201172 12.0273 0 11.5 0Z" fill="#9CB2FF"/>
</svg>
