<svg width="23" height="23" viewBox="0 0 24 26" fill="none" xmlns="http://www.w3.org/2000/svg">
<path d="M12 4.7125L11.45 4.6375L4.5 16.625C4.8 16.8875 5 17.225 5.0875 17.6H18.9125C19 17.225 19.2 16.8875 19.5 16.625L12.55 4.6375L12 4.7125ZM5.25 18.6625L10.6 21.825C10.9625 21.4875 11.4625 21.2875 12 21.2875C12.5375 21.2875 13.0375 21.4875 13.4 21.825L18.75 18.6625H5.25ZM12 25.5C11.443 25.5 10.9089 25.2788 10.5151 24.8849C10.1212 24.4911 9.9 23.957 9.9 23.4L10.0125 22.7L4.6375 19.5125C4.25 19.9625 3.6875 20.2375 3.05 20.2375C2.49305 20.2375 1.9589 20.0163 1.56508 19.6224C1.17125 19.2286 0.95 18.6945 0.95 18.1375C0.95 17.15 1.6125 16.325 2.525 16.0875V9.7C1.4875 9.5625 0.6875 8.675 0.6875 7.6C0.6875 7.04305 0.908749 6.5089 1.30258 6.11508C1.6964 5.72125 2.23055 5.5 2.7875 5.5C3.475 5.5 4.075 5.825 4.4625 6.325L9.975 3.1625L9.9 2.6C9.9 1.4375 10.8375 0.5 12 0.5C13.1625 0.5 14.1 1.4375 14.1 2.6L14.025 3.1625L19.5375 6.325C19.925 5.825 20.525 5.5 21.2125 5.5C21.7695 5.5 22.3036 5.72125 22.6974 6.11508C23.0912 6.5089 23.3125 7.04305 23.3125 7.6C23.3125 8.675 22.5125 9.5625 21.475 9.7V16.0875C22.3875 16.325 23.05 17.15 23.05 18.1375C23.05 18.6945 22.8287 19.2286 22.4349 19.6224C22.0411 20.0163 21.507 20.2375 20.95 20.2375C20.3125 20.2375 19.75 19.9625 19.3625 19.5125L13.9875 22.7L14.1 23.4C14.1 23.957 13.8788 24.4911 13.4849 24.8849C13.0911 25.2788 12.557 25.5 12 25.5ZM10.5 4.075L4.875 7.3L4.9 7.6C4.9 8.4875 4.35 9.25 3.575 9.5625L3.6125 16.125L10.5 4.075ZM13.5 4.075L20.3875 16.125L20.425 9.5625C19.65 9.25 19.1 8.4875 19.1 7.6L19.125 7.3L13.5 4.075Z" fill="#9CB2FF"/>
</svg>
