<svg width="24" height="29" viewBox="0 0 24 29" fill="none" xmlns="http://www.w3.org/2000/svg">
<path d="M21.195 25.8194C21.195 25.8194 22.035 26.5094 20.25 27.0494C16.845 28.0844 6.10505 28.3994 3.12005 27.0494C2.04005 26.5844 4.05005 25.9394 4.62005 25.8044C4.95792 25.7172 5.30618 25.6768 5.65505 25.6844C4.45505 24.8444 -2.06995 27.3344 2.34005 28.0544C14.415 30.1094 24.3 27.2144 21.195 25.8194ZM17.055 18.4994C17.4961 18.2204 17.9574 17.9747 18.435 17.7644C18.435 17.7644 16.17 18.1694 13.935 18.3644C11.5316 18.5963 9.11275 18.6214 6.70505 18.4394C3.13505 17.9744 8.61005 16.6094 8.61005 16.6094C6.96244 16.5966 5.3362 16.9826 3.87005 17.7344C0.780049 19.2794 11.505 19.9544 17.055 18.4994ZM18.42 22.1594C18.3873 22.2103 18.3468 22.2559 18.3 22.2944C25.8 20.3144 23.07 15.3194 19.47 16.5794C19.2715 16.6524 19.0991 16.783 18.975 16.9544C18.975 16.9544 19.185 16.8794 19.62 16.7744C21.45 16.3994 24 19.2194 18.42 22.1594ZM12 16.6094C10.89 14.1044 7.11005 11.8994 12 8.04437C18.135 3.22937 15 0.109375 15 0.109375C16.26 5.07438 10.5 6.57438 8.49005 9.66438C7.09505 11.7794 9.19505 14.0444 12 16.6094Z" fill="#9CB2FF"/>
</svg>
