<svg width="16" height="16" viewBox="0 0 16 16" fill="none" xmlns="http://www.w3.org/2000/svg">
<path d="M0.333496 1.66675L2.3335 3.00008V9.66675L0.333496 8.33341V1.66675Z" fill="#9CB2FF"/>
<path d="M15.6665 6.66675L13.6665 8.00008V12.3334L15.6665 11.0001V6.66675Z" fill="#9CB2FF"/>
<path d="M15.6665 2L13.6665 3.33333V5.66667L15.6665 4.33333V2Z" fill="#9CB2FF"/>
<path d="M11.6665 1.66675L9.6665 3.00008V9.66675L11.6665 8.33341V1.66675Z" fill="#9CB2FF"/>
<path d="M0.333496 4.00008L6.00016 7.66675V5.33342L0.333496 1.66675V4.00008Z" fill="#9CB2FF"/>
<path d="M11.6667 4.00008L6 7.66675V5.33342L11.6667 1.66675V4.00008Z" fill="#9CB2FF"/>
<path d="M11.6667 8.66658L6 12.3333V9.99992L11.6667 6.33325V8.66658Z" fill="#9CB2FF"/>
<path d="M15.6667 11.3333L10 15V12.6667L15.6667 9V11.3333Z" fill="#9CB2FF"/>
<path d="M10 12.5883L6 10V12.3333L10 14.9217V12.5883Z" fill="#9CB2FF"/>
</svg>
