<svg width="21" height="24" viewBox="0 0 21 24" fill="none" xmlns="http://www.w3.org/2000/svg">
<path d="M10.4982 24C10.1723 24 9.86771 23.9111 9.58327 23.7572L6.69265 22.0169C6.26006 21.7729 6.47695 21.6839 6.60731 21.6395C7.19516 21.4412 7.30419 21.3979 7.91218 21.0469C7.97855 21.0025 8.06507 21.0229 8.13144 21.0674L10.3477 22.4135C10.4354 22.4568 10.5444 22.4568 10.6096 22.4135L19.2839 17.3211C19.3716 17.2778 19.4142 17.1889 19.4142 17.0783V6.91266C19.4142 6.80329 19.3716 6.71435 19.2839 6.67108L10.6096 1.60028C10.5231 1.55581 10.4141 1.55581 10.3477 1.60028L1.67109 6.66988C1.58457 6.71315 1.54072 6.82492 1.54072 6.91146V17.0759C1.54072 17.1636 1.58457 17.2754 1.67109 17.3187L4.04142 18.7093C5.32378 19.3679 6.12969 18.5951 6.12969 17.8259V7.79485C6.12969 7.66264 6.23754 7.52923 6.39043 7.52923H7.49975C7.62774 7.52923 7.76048 7.63981 7.76048 7.79485V17.8271C7.76048 19.5686 6.82657 20.5842 5.19578 20.5842C4.69564 20.5842 4.30453 20.5842 3.19521 20.0313L0.913765 18.7105C0.635793 18.5466 0.405103 18.3116 0.244751 18.029C0.0844002 17.7463 4.56672e-06 17.426 0 17.0999V6.93429C0 6.27325 0.347255 5.65548 0.913765 5.32496L9.58446 0.232528C9.86593 0.0798697 10.1802 0 10.4994 0C10.8186 0 11.1329 0.0798697 11.4144 0.232528L20.0862 5.32496C20.6539 5.65428 21 6.27325 21 6.93429V17.0999C21 17.7598 20.6527 18.3775 20.0862 18.7105L11.4144 23.8017C11.1287 23.9339 10.8028 24 10.4982 24ZM13.172 17.0098C9.36757 17.0098 8.58536 15.2454 8.58536 13.7478C8.58536 13.6156 8.6944 13.4822 8.8461 13.4822H9.97675C10.1071 13.4822 10.215 13.57 10.215 13.7034C10.3892 14.8704 10.8881 15.4449 13.1945 15.4449C15.0196 15.4449 15.8042 15.0242 15.8042 14.0327C15.8042 13.4594 15.585 13.0411 12.7382 12.7551C10.369 12.5147 8.89113 11.9823 8.89113 10.0652C8.89113 8.28042 10.369 7.22155 12.8484 7.22155C15.63 7.22155 17.0001 8.19388 17.1731 10.308C17.171 10.3794 17.1479 10.4484 17.1067 10.5063C17.0629 10.5496 16.9989 10.5941 16.9337 10.5941H15.8042C15.7484 10.5929 15.6945 10.5728 15.6512 10.5371C15.6078 10.5014 15.5774 10.4521 15.5648 10.397C15.3029 9.18064 14.6297 8.78641 12.8484 8.78641C10.8467 8.78641 10.6073 9.49193 10.6073 10.0208C10.6073 10.659 10.8881 10.8573 13.5868 11.2106C16.2605 11.5628 17.5215 12.07 17.5215 13.9678C17.4978 15.9088 15.9346 17.0098 13.172 17.0098Z" fill="#9CB2FF"/>
</svg>
