<svg width="24" height="24" viewBox="0 0 24 24" fill="none" xmlns="http://www.w3.org/2000/svg">
<path d="M16.5764 16.5454C16.9994 16.5042 17.3899 16.3007 17.6661 15.9777C17.9423 15.6546 18.0826 15.2372 18.0577 14.8129C18.0382 14.3772 17.8523 13.9656 17.5384 13.6628C17.2244 13.36 16.8063 13.1892 16.3702 13.1854H16.3102C15.8628 13.2014 15.4399 13.3943 15.1346 13.7217C14.8292 14.0491 14.6662 14.4843 14.6814 14.9317C14.7114 15.4055 14.9052 15.7904 15.1702 16.0704C14.1364 18.0817 12.5827 19.563 10.2277 20.8055C8.64517 21.6342 6.97267 21.9454 5.34642 21.7229C3.98517 21.5317 2.92142 20.923 2.26767 19.9467C1.29267 18.4655 1.20267 16.8692 2.01642 15.2717C2.51272 14.3186 3.22189 13.4927 4.08892 12.8579C3.91051 12.3623 3.77215 11.8532 3.67517 11.3354C-0.707332 14.4729 -0.259832 18.7629 1.07017 20.7904C2.06267 22.2704 4.08892 23.2167 6.30767 23.2167C6.90017 23.2167 7.52267 23.1729 8.12892 23.0242C11.9752 22.2842 14.8902 19.9767 16.5627 16.5742L16.5764 16.5454Z" fill="#9CB2FF"/>
<path d="M21.8588 12.8456C19.5663 10.1531 16.1926 8.67439 12.3451 8.67439H11.8413C11.5913 8.12689 11.0151 7.78564 10.3626 7.78564H10.3176C9.38758 7.78564 8.66133 8.58564 8.69133 9.51689C8.72008 10.4044 9.47508 11.1444 10.3788 11.1444H10.4526C10.7725 11.1323 11.0821 11.0282 11.3444 10.8447C11.6066 10.6611 11.8104 10.4058 11.9313 10.1094H12.4801C14.7601 10.1094 16.9188 10.7744 18.8876 12.0769C20.3951 13.0669 21.4776 14.3694 22.0838 15.9231C22.6151 17.1969 22.5863 18.4394 22.0401 19.4769C21.1963 21.1044 19.7751 21.9619 17.8976 21.9619C16.7138 21.9619 15.5588 21.5919 14.9663 21.3256C14.6126 21.6194 14.0188 22.1081 13.5888 22.4044C14.8913 22.9956 16.2088 23.3369 17.4801 23.3369C20.3663 23.3369 22.5088 21.7094 23.3251 20.1406C24.2113 18.3631 24.1388 15.3744 21.8738 12.8169L21.8588 12.8456Z" fill="#9CB2FF"/>
<path d="M6.5589 17.0781C6.58765 17.9656 7.3414 18.7056 8.2464 18.7056H8.3064C8.52878 18.7005 8.7479 18.651 8.95085 18.56C9.15379 18.4689 9.33648 18.3382 9.48813 18.1755C9.63979 18.0127 9.75736 17.8213 9.83391 17.6125C9.91047 17.4036 9.94447 17.1816 9.9339 16.9594C9.9339 16.0719 9.1639 15.3331 8.2614 15.3331H8.2014C8.1414 15.3331 8.0539 15.3331 7.9789 15.3606C6.7514 13.2894 6.23265 11.0681 6.4264 8.67437C6.5439 6.86812 7.13515 5.29938 8.2014 3.99688C9.0889 2.88688 10.7614 2.33937 11.9014 2.30937C15.0964 2.24937 16.4289 6.23187 16.5314 7.81437L18.0114 8.25688C17.6702 3.40438 14.6527 0.859375 11.7664 0.859375C9.0589 0.859375 6.5589 2.82687 5.55265 5.71437C4.17515 9.56063 5.0789 13.2594 6.7664 16.2194C6.6189 16.4119 6.53015 16.7519 6.5589 17.0781Z" fill="#9CB2FF"/>
</svg>
