<svg width="22" height="21" viewBox="0 0 22 21" fill="none" xmlns="http://www.w3.org/2000/svg">
<path d="M0.5 0.484375V1.60938V20.7344H21.5V0.484375H0.5ZM2.83333 2.73438H19.1667V18.4844H2.83333V2.73438ZM5.16667 8.35938V9.99194H7.58659V17.3594H9.57812V9.99194H12.0482V8.35938H5.16667ZM15.1471 8.38135C13.7655 8.47852 12.3854 9.03627 12.3854 10.8818C12.3854 13.5965 16.1771 13.5953 16.1771 14.8193C16.1771 14.9352 16.2301 15.7795 14.8919 15.7795C13.5538 15.7795 12.4355 14.9688 12.4355 14.9688V16.9397C12.4355 16.9397 18.2712 18.7585 18.2712 14.6545C18.2712 11.9894 14.443 12.1225 14.443 10.7983C14.443 10.2853 14.823 9.80518 15.8695 9.80518C16.916 9.80518 17.8428 10.4006 17.8428 10.4006L17.9111 8.64722C17.9111 8.64722 16.5288 8.28418 15.1471 8.38135Z" fill="#9CB2FF"/>
</svg>
