<svg width="31" height="40" viewBox="0 0 31 40" fill="none" xmlns="http://www.w3.org/2000/svg">
<path d="M25.7284 20.9922C25.7122 18.125 27.0524 15.9609 29.7649 14.3672C28.2471 12.2656 25.9544 11.1094 22.9271 10.8828C20.0612 10.6641 16.9289 12.5 15.7826 12.5C14.5716 12.5 11.7945 10.9609 9.61485 10.9609C5.11016 11.0312 0.322918 14.4375 0.322918 21.3672C0.322918 23.4141 0.710418 25.5286 1.48542 27.7109C2.51875 30.5781 6.24844 37.6094 10.1396 37.4922C12.174 37.4453 13.6109 36.0938 16.2589 36.0938C18.826 36.0938 20.1581 37.4922 22.4266 37.4922C26.35 37.4375 29.7245 31.0469 30.7094 28.1719C25.4458 25.7734 25.7284 21.1406 25.7284 20.9922ZM21.1591 8.16406C23.363 5.63281 23.1612 3.32812 23.0966 2.5C21.151 2.60938 18.8987 3.78125 17.6151 5.22656C16.2023 6.77344 15.3708 8.6875 15.5484 10.8438C17.6555 11 19.5768 9.95312 21.1591 8.16406Z" fill="white"/>
</svg>
