<svg width="18" height="18" viewBox="0 0 18 18" fill="none" xmlns="http://www.w3.org/2000/svg">
<path d="M17.1951 0.000325926C17.1659 0.00124716 17.1368 0.00379758 17.108 0.00796521H12.5166C12.4129 0.00649921 12.31 0.02565 12.2138 0.0643045C12.1176 0.102959 12.0301 0.160346 11.9563 0.233132C11.8824 0.305917 11.8238 0.392648 11.7838 0.488285C11.7438 0.583923 11.7232 0.686558 11.7232 0.790228C11.7232 0.893897 11.7438 0.996533 11.7838 1.09217C11.8238 1.18781 11.8824 1.27454 11.9563 1.34732C12.0301 1.42011 12.1176 1.4775 12.2138 1.51615C12.31 1.55481 12.4129 1.57396 12.5166 1.57249H15.3218L7.26978 9.62429C7.1947 9.69637 7.13476 9.78271 7.09346 9.87825C7.05217 9.97379 7.03035 10.0766 7.02929 10.1807C7.02823 10.2847 7.04795 10.388 7.08729 10.4843C7.12663 10.5807 7.18481 10.6682 7.2584 10.7418C7.332 10.8154 7.41954 10.8736 7.5159 10.9129C7.61226 10.9523 7.7155 10.972 7.81958 10.9709C7.92366 10.9699 8.02648 10.9481 8.12202 10.9068C8.21756 10.8655 8.3039 10.8055 8.37598 10.7305L16.428 2.67866V5.4838C16.4266 5.58746 16.4457 5.69038 16.4844 5.78657C16.523 5.88276 16.5804 5.97032 16.6532 6.04414C16.726 6.11796 16.8127 6.17658 16.9084 6.21659C17.004 6.2566 17.1067 6.27721 17.2103 6.27721C17.314 6.27721 17.4166 6.2566 17.5123 6.21659C17.6079 6.17658 17.6947 6.11796 17.7674 6.04414C17.8402 5.97032 17.8976 5.88276 17.9363 5.78657C17.9749 5.69038 17.9941 5.58746 17.9926 5.4838V0.889538C18.0082 0.776912 17.999 0.662244 17.9658 0.553517C17.9325 0.444791 17.876 0.34462 17.8001 0.259978C17.7241 0.175337 17.6307 0.10826 17.5262 0.0634171C17.4217 0.0185746 17.3087 -0.00295552 17.1951 0.000325926ZM1.56458 3.13701C0.709486 3.13701 0 3.84648 0 4.70154V16.4355C0 17.2905 0.709486 18 1.56458 18H13.2989C14.154 18 14.8635 17.2905 14.8635 16.4355V8.61285V6.59608L13.2989 8.16061V10.1774V16.4355H1.56458V4.70154H7.82288H9.38745H9.83971L11.4043 3.13701H9.38745H7.82288H1.56458Z" fill="#9CB2FF"/>
</svg>
