<svg width="14" height="14" viewBox="0 0 14 14" fill="none" xmlns="http://www.w3.org/2000/svg">
<g clip-path="url(#clip0_10_14)">
<path d="M6.99993 4.35039C5.55017 4.35039 4.39954 5.52563 4.39954 6.95078C4.39954 8.37594 5.52611 9.60039 6.99993 9.60039C8.47376 9.60039 9.60032 8.42516 9.60032 7C9.60032 5.57484 8.44915 4.35039 6.99993 4.35039ZM13.9261 9.48828L12.198 6.97539L13.9247 4.48684C14.0979 4.23733 13.9549 3.89238 13.656 3.83824L10.6756 3.29957L10.1369 0.319104C10.0829 0.0202371 9.73797 -0.122771 9.48832 0.0504793L6.99993 1.80168L4.48704 0.0748152C4.23753 -0.0983254 3.89259 0.0445457 3.83845 0.34344L3.32494 3.325L0.343378 3.86367C0.0445935 3.91563 -0.0983867 4.26289 0.0747536 4.48711L1.80162 7L0.074863 9.48855C-0.0982774 9.73807 0.0446482 10.083 0.343488 10.1371L3.32395 10.6758L3.86262 13.6563C3.91663 13.9552 4.26157 14.0982 4.51122 13.9249L6.99993 12.198L9.48848 13.9248C9.73805 14.098 10.0832 13.9551 10.1371 13.6562L10.6757 10.6758L13.6562 10.1371C13.9562 10.0844 14.0984 9.73711 13.9261 9.48828ZM6.99993 10.4754C5.067 10.4754 3.52454 8.90832 3.52454 7C3.52454 5.06707 5.09161 3.52461 6.99993 3.52461C8.90825 3.52461 10.4753 5.09141 10.4753 7C10.4753 8.9332 8.93313 10.4754 6.99993 10.4754Z" fill="white"/>
</g>
<defs>
<clipPath id="clip0_10_14">
<rect width="14" height="14" fill="white"/>
</clipPath>
</defs>
</svg>
